<?xml version="1.0" encoding="UTF-8"?>
<svg version="1.1" xmlns="http://www.w3.org/2000/svg" width="1024" height="309">
<path d="M0 0 C337.92 0 675.84 0 1024 0 C1024 101.97 1024 203.94 1024 309 C686.08 309 348.16 309 0 309 C0 207.03 0 105.06 0 0 Z " fill="#FEFEFE" transform="translate(0,0)"/>
<path d="M0 0 C0.95519531 0.00644531 1.91039062 0.01289063 2.89453125 0.01953125 C5.1875 0.1875 5.1875 0.1875 6.1875 1.1875 C6.33943163 3.30869924 6.40933514 5.43605315 6.4375 7.5625 C6.47617187 9.30660156 6.47617187 9.30660156 6.515625 11.0859375 C6.1875 14.1875 6.1875 14.1875 5.05078125 15.9921875 C2.51639919 17.6180175 0.04159912 18.20052859 -2.875 18.9375 C-13.07153422 21.95785423 -19.56079208 26.5137478 -24.75390625 35.85546875 C-26.76611355 40.28826491 -26.98479419 44.28198977 -27.12890625 49.140625 C-27.1600779 50.13095734 -27.1600779 50.13095734 -27.19187927 51.14129639 C-27.25700147 53.23993015 -27.31608502 55.33868372 -27.375 57.4375 C-27.41822079 58.86459547 -27.4618362 60.29167905 -27.50585938 61.71875 C-27.61264411 65.20820722 -27.71401566 68.69779753 -27.8125 72.1875 C-30.13386077 73.34818039 -31.53199359 73.32634991 -34.1171875 73.36328125 C-62.72471552 74.03888531 -87.27701286 80.25197476 -108.8125 100.1875 C-118.64489938 110.49797391 -125.4919352 122.65951797 -129.8125 136.1875 C-130.09867187 136.96738281 -130.38484375 137.74726563 -130.6796875 138.55078125 C-130.95039063 139.29714844 -131.22109375 140.04351562 -131.5 140.8125 C-131.73074219 141.44414062 -131.96148437 142.07578125 -132.19921875 142.7265625 C-136.32858093 159.29661457 -135.46241774 179.47849731 -130.76953125 195.7890625 C-129.59851641 199.94736009 -129.12500434 203.89056531 -128.8125 208.1875 C-132.07848224 210.36482149 -132.79371117 210.40284115 -136.53125 210.2421875 C-137.4584082 210.21463379 -138.38556641 210.18708008 -139.34082031 210.15869141 C-140.81180176 210.11107666 -140.81180176 210.11107666 -142.3125 210.0625 C-150.5820835 209.93841622 -157.39879476 210.15504546 -164.8125 214.1875 C-165.67875 214.62320313 -166.545 215.05890625 -167.4375 215.5078125 C-177.42747486 220.94878095 -184.14983805 229.25259684 -187.41113281 240.19628906 C-188.67582652 244.83073951 -189.77112138 249.49838731 -190.8125 254.1875 C-193.62506281 254.21434312 -196.43737241 254.23426188 -199.25 254.25 C-200.05244141 254.25837891 -200.85488281 254.26675781 -201.68164062 254.27539062 C-203.72545221 254.2840143 -205.76933902 254.2397815 -207.8125 254.1875 C-208.8125 253.1875 -208.8125 253.1875 -209.1875 249.5625 C-208.94235201 232.45661816 -197.89440814 218.10086465 -186.29833984 206.59570312 C-176.57595403 197.38132235 -164.21132 191.92477804 -150.8125 192.1875 C-151.8025 190.2075 -151.8025 190.2075 -152.8125 188.1875 C-153.1425 188.5175 -153.4725 188.8475 -153.8125 189.1875 C-161.14583333 189.66061828 -161.14583333 189.66061828 -163.75 187.8125 C-166.12994388 184.17258583 -165.84820172 181.68885629 -165.69921875 177.34375 C-165.66704184 175.93753522 -165.63649786 174.53128231 -165.60742188 173.125 C-165.55841297 170.91691708 -165.50091204 168.71087338 -165.41479492 166.50390625 C-165.05732845 156.94842796 -165.57096449 149.93832611 -171.8125 142.1875 C-172.54855469 141.22457031 -173.28460938 140.26164063 -174.04296875 139.26953125 C-175.35485189 137.74816577 -176.66735883 136.227338 -177.98046875 134.70703125 C-183.38997204 127.26752246 -184.02615564 119.3050065 -183.20019531 110.44384766 C-182.0462616 103.72806974 -178.38225967 97.8837043 -174.8125 92.1875 C-174.43851074 91.58357422 -174.06452148 90.97964844 -173.67919922 90.35742188 C-167.85189566 81.10483182 -161.2744128 72.86464768 -151.8125 67.1875 C-152.27380563 65.03474038 -152.77447894 63.25796374 -153.82421875 61.3125 C-155.532324 57.63973613 -155.44279541 54.14471554 -154.8125 50.1875 C-152.57629547 44.72655417 -149.24280173 40.64650456 -143.8125 38.1875 C-138.78236691 37.39974669 -135.01907917 37.58421042 -130.4375 39.875 C-123.11563403 46.32521526 -123.11563403 46.32521526 -122.609375 51.10546875 C-122.45297703 58.6777372 -124.9177461 63.77261122 -128.8125 70.1875 C-117.40279297 69.90657918 -109.351878 64.20972962 -100.8125 57.1875 C-100.8125 56.5275 -100.8125 55.8675 -100.8125 55.1875 C-101.658125 54.713125 -102.50375 54.23875 -103.375 53.75 C-108.95480877 50.26926215 -112.77466015 43.30101956 -114.8125 37.1875 C-115.35078279 30.83576308 -114.48667245 26.46700317 -110.8125 21.1875 C-106.85491887 16.90463823 -102.51009302 14.44746829 -96.69140625 13.88671875 C-85.23160597 13.84622476 -85.23160597 13.84622476 -80.8125 17.1875 C-74.96216176 23.17647185 -73.49002229 26.73189258 -73.42089844 35.22802734 C-73.59377672 44.05957751 -77.48198086 49.52435107 -82.8125 56.1875 C-83.60196609 58.87257329 -83.60196609 58.87257329 -83.8125 61.1875 C-83.27882813 60.99414062 -82.74515625 60.80078125 -82.1953125 60.6015625 C-70.79979557 56.6190462 -59.78535554 55.7153057 -47.8125 55.1875 C-47.84472656 54.01703125 -47.87695312 52.8465625 -47.91015625 51.640625 C-47.88820982 37.381714 -41.24507818 24.63806245 -31.75 14.375 C-23.50149706 6.49107178 -11.63403745 -0.1750676 0 0 Z " fill="#CA2A6E" transform="translate(295.8125,25.8125)"/>
<path d="M0 0 C4.6715625 -0.0309375 4.6715625 -0.0309375 9.4375 -0.0625 C10.91174438 -0.07615601 10.91174438 -0.07615601 12.41577148 -0.09008789 C13.56928101 -0.09383423 13.56928101 -0.09383423 14.74609375 -0.09765625 C15.53685303 -0.10289307 16.3276123 -0.10812988 17.14233398 -0.11352539 C19 0 19 0 20 1 C20.09742068 2.33839473 20.12631559 3.68186825 20.12698364 5.02380371 C20.13121338 6.32368477 20.13121338 6.32368477 20.13552856 7.64982605 C20.13249222 9.08676567 20.13249222 9.08676567 20.12939453 10.55273438 C20.13202301 12.05747063 20.13202301 12.05747063 20.13470459 13.59260559 C20.13912516 16.92633772 20.13618439 20.26001729 20.1328125 23.59375 C20.13348548 25.89921072 20.13445545 28.20467136 20.13571167 30.51013184 C20.13718892 35.34904657 20.13503321 40.18794287 20.13037109 45.02685547 C20.1246738 51.24494645 20.12795266 57.46299428 20.13394356 63.68108368 C20.13754843 68.44383065 20.13641092 73.2065673 20.13381577 77.96931458 C20.13314629 80.26276149 20.13397562 82.55620932 20.13629532 84.84965515 C20.13882064 88.04888406 20.13498295 91.24804203 20.12939453 94.44726562 C20.13141876 95.40522537 20.13344299 96.36318512 20.13552856 97.35017395 C20.13270874 98.21676132 20.12988892 99.08334869 20.12698364 99.97619629 C20.1264181 101.1122015 20.1264181 101.1122015 20.12584114 102.27115631 C20 104 20 104 19 105 C16.19488047 105.15354338 13.43136329 105.23165776 10.625 105.25 C9.84382812 105.270625 9.06265625 105.29125 8.2578125 105.3125 C2.40546097 105.3525846 2.40546097 105.3525846 0.25146484 103.47949219 C-0.36801025 102.74714355 -0.36801025 102.74714355 -1 102 C-1.62261719 102.48726563 -2.24523437 102.97453125 -2.88671875 103.4765625 C-7.23874333 105.60616048 -11.0328477 105.43830665 -15.8125 105.375 C-16.67681641 105.38660156 -17.54113281 105.39820313 -18.43164062 105.41015625 C-26.41669094 105.37399753 -33.46441513 103.61765843 -39.33789062 97.88867188 C-46.30397686 89.97303687 -45.62034787 79.45732665 -45.52148438 69.55957031 C-45.50004108 67.00489381 -45.52135853 64.45302854 -45.546875 61.8984375 C-45.56349844 51.71881648 -44.64031112 43.98051113 -39.25 35.125 C-32.63666152 28.87906921 -24.92535869 27.81579707 -16.125 27.75 C-15.44308594 27.729375 -14.76117187 27.70875 -14.05859375 27.6875 C-13.38183594 27.68234375 -12.70507812 27.6771875 -12.0078125 27.671875 C-11.10506592 27.65785645 -11.10506592 27.65785645 -10.18408203 27.64355469 C-8 28 -8 28 -1 31 C-0.67 20.77 -0.34 10.54 0 0 Z " fill="#FD7710" transform="translate(847,111)"/>
<path d="M0 0 C5.42617365 4.92141331 7.71636425 11.30660386 8.6875 18.4375 C8.81255209 21.0877419 8.89806082 23.71249348 8.92578125 26.36328125 C8.933853 27.11030807 8.94192474 27.8573349 8.95024109 28.6269989 C8.96400692 30.20109793 8.97476225 31.77522586 8.98266602 33.34936523 C8.99418387 34.94450757 9.01463291 36.53961141 9.04418945 38.13452148 C9.23562706 48.48819452 9.24017252 57.06768113 2.25 65.3125 C-7.93291728 73.75687042 -20.67731301 73.51908047 -33.3125 72.4375 C-39.90223679 71.10369113 -45.18684947 68.93836738 -49.3125 63.4375 C-53.34260415 56.67022614 -54.46581484 50.75901769 -54.55078125 42.8984375 C-54.558853 42.17693512 -54.56692474 41.45543274 -54.57524109 40.71206665 C-54.58902748 39.18746299 -54.59977381 37.66282916 -54.60766602 36.13818359 C-54.61914264 34.59837625 -54.63952572 33.05860733 -54.66918945 31.51904297 C-55.0574568 11.32480272 -55.0574568 11.32480272 -48.76196289 3.51367188 C-36.50734436 -8.75479816 -14.37857796 -6.78234809 0 0 Z " fill="#CF236E" transform="translate(379.3125,143.5625)"/>
<path d="M0 0 C7.05767596 7.03844523 8.13080585 16.33216159 8.2487793 25.86254883 C8.25291168 35.21413949 8.25291168 35.21413949 8 38 C6.47208917 39.52791083 5.07010592 39.16183457 2.93920898 39.20532227 C2.07839218 39.22526749 1.21757538 39.24521271 0.33067322 39.26576233 C-1.07244362 39.29083107 -1.07244362 39.29083107 -2.50390625 39.31640625 C-3.45692123 39.33718735 -4.40993622 39.35796844 -5.39183044 39.37937927 C-8.4486441 39.44498177 -11.50554656 39.50380918 -14.5625 39.5625 C-16.62956663 39.60567506 -18.69662414 39.64928901 -20.76367188 39.69335938 C-25.84235595 39.80067401 -30.9211297 39.90191091 -36 40 C-36.60031584 47.06888302 -36.60031584 47.06888302 -34.56640625 53.65234375 C-30.71301226 55.67581548 -27.2290458 55.6204478 -22.9375 55.5625 C-22.12216797 55.58634766 -21.30683594 55.61019531 -20.46679688 55.63476562 C-18.19276214 55.62915995 -16.20615134 55.55456747 -14 55 C-11.89713353 52.71962013 -11.89713353 52.71962013 -11 50 C-10.505 49.01 -10.505 49.01 -10 48 C-4.06 48 1.88 48 8 48 C8 58.36842105 8 58.36842105 4 63 C-2.9421122 69.9421122 -10.60600557 71.37495914 -20.23828125 71.41015625 C-21.31464844 71.39855469 -22.39101563 71.38695312 -23.5 71.375 C-24.57636719 71.38660156 -25.65273438 71.39820313 -26.76171875 71.41015625 C-35.90302322 71.37675319 -43.75425362 69.89770054 -51 64 C-54.5967857 59.33389964 -56.09430997 55.7406848 -56.17700195 49.92504883 C-56.18983719 49.13354935 -56.20267242 48.34204987 -56.21589661 47.52656555 C-56.22328354 46.67861923 -56.23067047 45.83067291 -56.23828125 44.95703125 C-56.246353 44.07399826 -56.25442474 43.19096527 -56.26274109 42.28117371 C-56.27655638 40.41264799 -56.28728993 38.5440973 -56.29516602 36.67553711 C-56.30666827 34.77572166 -56.32709221 32.87593807 -56.35668945 30.97631836 C-56.39961598 28.21966774 -56.41557063 25.46397572 -56.42578125 22.70703125 C-56.44328934 21.86920609 -56.46079742 21.03138092 -56.47883606 20.16816711 C-56.45194005 12.74667476 -54.38330924 6.8110827 -49.5625 1.125 C-36.98206022 -9.30755982 -13.28677862 -9.63942763 0 0 Z " fill="#F46225" transform="translate(709,145)"/>
<path d="M0 0 C6.1997267 4.2016564 9.29219611 9.54463198 10.80859375 16.8125 C10.89932432 18.67040518 10.93648269 20.53123877 10.93798828 22.39135742 C10.94114044 23.50898972 10.9442926 24.62662201 10.94754028 25.77812195 C10.94450394 27.57984612 10.94450394 27.57984612 10.94140625 29.41796875 C10.94236298 30.6529158 10.9433197 31.88786285 10.94430542 33.16023254 C10.94515987 36.43628706 10.94113655 39.71229407 10.93554688 42.98834229 C10.93359125 45.00257873 10.93554561 47.01677179 10.93896484 49.03100586 C10.94511408 52.88918095 10.94440218 56.74729104 10.94140625 60.60546875 C10.94343048 61.81269089 10.94545471 63.01991302 10.94754028 64.26371765 C10.94281204 65.92598137 10.94281204 65.92598137 10.93798828 67.62182617 C10.93719269 68.60237473 10.93639709 69.58292328 10.93557739 70.59318542 C10.80859375 72.8125 10.80859375 72.8125 9.80859375 73.8125 C8.4781575 73.9108721 7.14266031 73.94328592 5.80859375 73.9453125 C5.00421875 73.94660156 4.19984375 73.94789063 3.37109375 73.94921875 C2.52546875 73.94535156 1.67984375 73.94148438 0.80859375 73.9375 C-0.03703125 73.94136719 -0.88265625 73.94523437 -1.75390625 73.94921875 C-2.55828125 73.94792969 -3.36265625 73.94664062 -4.19140625 73.9453125 C-4.93390625 73.94418457 -5.67640625 73.94305664 -6.44140625 73.94189453 C-8.19140625 73.8125 -8.19140625 73.8125 -9.19140625 72.8125 C-9.29879537 71.11015816 -9.33764918 69.40344103 -9.34912109 67.69775391 C-9.35938324 66.60637115 -9.36964539 65.5149884 -9.38021851 64.39053345 C-9.38751984 63.20204803 -9.39482117 62.01356262 -9.40234375 60.7890625 C-9.43040962 58.29947256 -9.45907407 55.80988931 -9.48828125 53.3203125 C-9.52960022 49.37435064 -9.56646616 45.42851402 -9.59277344 41.48242188 C-9.62029287 37.68853596 -9.66616546 33.89522786 -9.71484375 30.1015625 C-9.71809662 28.91712555 -9.72134949 27.7326886 -9.72470093 26.51235962 C-9.7412674 25.41467255 -9.75783386 24.31698547 -9.77490234 23.18603516 C-9.78703262 21.73494858 -9.78703262 21.73494858 -9.79940796 20.25454712 C-10.26019378 17.38397165 -10.87812388 16.52038503 -13.19140625 14.8125 C-18.4674841 13.05380738 -23.40983563 13.16465614 -28.62890625 15.0625 C-31.38942859 16.94773477 -32.01331708 17.77206665 -33.19140625 20.8125 C-33.50931538 23.3081242 -33.50931538 23.3081242 -33.49438477 26.02416992 C-33.51102676 27.06171921 -33.52766876 28.09926849 -33.54481506 29.16825867 C-33.55322922 30.28191299 -33.56164337 31.39556732 -33.5703125 32.54296875 C-33.58730698 33.68913162 -33.60430145 34.83529449 -33.62181091 36.01618958 C-33.67495739 39.67740377 -33.71525914 43.33860624 -33.75390625 47 C-33.79777236 50.67204854 -33.84439896 54.3440073 -33.89671326 58.01594543 C-33.92877788 60.30175549 -33.95563389 62.58764532 -33.97694397 64.87358093 C-33.99043381 65.90167374 -34.00392365 66.92976654 -34.01782227 67.98901367 C-34.02733414 68.89850266 -34.03684601 69.80799164 -34.04664612 70.74504089 C-34.19140625 72.8125 -34.19140625 72.8125 -35.19140625 73.8125 C-36.5218425 73.9108721 -37.85733969 73.94328592 -39.19140625 73.9453125 C-39.99578125 73.94660156 -40.80015625 73.94789063 -41.62890625 73.94921875 C-42.47453125 73.94535156 -43.32015625 73.94148438 -44.19140625 73.9375 C-45.03703125 73.94136719 -45.88265625 73.94523437 -46.75390625 73.94921875 C-47.55828125 73.94792969 -48.36265625 73.94664062 -49.19140625 73.9453125 C-49.93390625 73.94418457 -50.67640625 73.94305664 -51.44140625 73.94189453 C-53.19140625 73.8125 -53.19140625 73.8125 -54.19140625 72.8125 C-54.2911178 70.51738504 -54.31940491 68.21915451 -54.32080078 65.921875 C-54.3225531 65.20157104 -54.32430542 64.48126709 -54.32611084 63.73913574 C-54.33052913 61.34689966 -54.32759146 58.9547369 -54.32421875 56.5625 C-54.3248918 54.90722642 -54.32586183 53.25195293 -54.32711792 51.59667969 C-54.32859486 48.12303733 -54.32644046 44.64942063 -54.32177734 41.17578125 C-54.31608005 36.71317502 -54.31935908 32.25062892 -54.32534981 27.7880249 C-54.32895552 24.3686477 -54.32781679 20.94928485 -54.32522202 17.52990723 C-54.32455277 15.88399244 -54.32538107 14.23807637 -54.32770157 12.59216309 C-54.33022827 10.29578169 -54.32638728 7.99949901 -54.32080078 5.703125 C-54.32000519 4.39375977 -54.31920959 3.08439453 -54.31838989 1.73535156 C-54.19140625 -1.1875 -54.19140625 -1.1875 -53.19140625 -2.1875 C-50.32873058 -2.26075168 -47.49068725 -2.27988205 -44.62890625 -2.25 C-43.82259766 -2.24548828 -43.01628906 -2.24097656 -42.18554688 -2.23632812 C-40.18746869 -2.22450518 -38.18942842 -2.20656914 -36.19140625 -2.1875 C-35.53140625 -0.5375 -34.87140625 1.1125 -34.19140625 2.8125 C-33.76730469 2.35230469 -33.34320312 1.89210937 -32.90625 1.41796875 C-24.96644671 -6.0154234 -9.0373787 -4.89726047 0 0 Z " fill="#F96B1B" transform="translate(782.19140625,142.1875)"/>
<path d="M0 0 C5.61 0 11.22 0 17 0 C20.51085295 12.10211665 23.92194572 24.23137183 27.25857544 36.38259888 C27.66942388 37.87716457 28.08159396 39.37136758 28.49508667 40.86520386 C29.08126265 42.98463196 29.66238426 45.10538345 30.2421875 47.2265625 C30.5810498 48.45971191 30.91991211 49.69286133 31.26904297 50.96337891 C32 54 32 54 32 57 C32.99 57 33.98 57 35 57 C35.11206284 56.40578751 35.22412567 55.81157501 35.33958435 55.19935608 C36.59207304 48.73115758 38.11725517 42.36858546 39.78515625 35.99609375 C40.17688271 34.48934837 40.17688271 34.48934837 40.57652283 32.9521637 C41.12389701 30.85014488 41.67270697 28.74849946 42.22290039 26.6472168 C43.06801735 23.41640764 43.90632084 20.18388007 44.74414062 16.95117188 C45.27823903 14.90353968 45.81272989 12.85600981 46.34765625 10.80859375 C46.72423119 9.35410072 46.72423119 9.35410072 47.1084137 7.870224 C47.34213181 6.98162186 47.57584991 6.09301971 47.81665039 5.17749023 C48.02157608 4.39268784 48.22650177 3.60788544 48.43763733 2.79930115 C49 1 49 1 50 0 C52.86267567 -0.07325168 55.700719 -0.09238205 58.5625 -0.0625 C59.36880859 -0.05798828 60.17511719 -0.05347656 61.00585938 -0.04882812 C63.00393756 -0.03700518 65.00197783 -0.01906914 67 0 C66.46589249 9.14266388 63.72449843 17.69433577 61.1875 26.4375 C60.4435899 29.02093029 59.70111312 31.6047699 58.95869446 34.18862915 C58.44053053 35.99097146 57.92138086 37.79303064 57.40129089 39.59481812 C55.75886154 45.29934324 54.16436725 51.01499677 52.60649109 56.74317932 C51.56433811 60.57185731 50.50794521 64.39654125 49.4503479 68.22097778 C48.94523248 70.06109161 48.44642017 71.90294825 47.95419312 73.74655151 C47.26149644 76.33613872 46.54544363 78.91823573 45.82421875 81.5 C45.62759644 82.25881973 45.43097412 83.01763947 45.22839355 83.79945374 C43.29796354 90.55116217 39.82313775 95.33455183 33.7421875 98.921875 C29.08096387 100.2647745 24.94448174 100.36790781 20.125 100.25 C18.825625 100.24226563 18.825625 100.24226563 17.5 100.234375 C11.15481151 100.15481151 11.15481151 100.15481151 10 99 C9.90090698 96.66839945 9.87029496 94.33370058 9.875 92 C9.87242187 90.72125 9.86984375 89.4425 9.8671875 88.125 C10 85 10 85 11 84 C14.0035954 83.71372691 17.00740107 83.55134245 20.01953125 83.37890625 C22.91766877 83.01046675 24.6189084 82.65987009 27 81 C28.32380339 79.07308367 28.32380339 79.07308367 29.25 76.875 C29.75273437 75.78832031 29.75273437 75.78832031 30.265625 74.6796875 C30.50796875 74.12539062 30.7503125 73.57109375 31 73 C30.01 73.495 30.01 73.495 29 74 C23.15076661 74.46422487 23.15076661 74.46422487 21 74 C18.10280151 70.84739293 17.07974759 67.62160398 15.89941406 63.55078125 C15.61837074 62.59393936 15.61837074 62.59393936 15.33164978 61.61776733 C14.71764865 59.51842001 14.11619394 57.41572595 13.515625 55.3125 C13.09199084 53.84793047 12.66789131 52.38349546 12.24334717 50.91918945 C11.35694197 47.8542949 10.47686137 44.78767141 9.60107422 41.71972656 C8.47819751 37.78848705 7.33869968 33.8622941 6.19430923 29.93727112 C5.31563852 26.91614481 4.44632442 23.89238757 3.57976532 20.86776733 C3.16331978 19.4188299 2.74384763 17.9707588 2.32129669 16.52359009 C1.73225921 14.50140523 1.1560395 12.47598815 0.58300781 10.44921875 C0.25230286 9.29768311 -0.0784021 8.14614746 -0.41912842 6.9597168 C-1 4 -1 4 0 0 Z " fill="#C71F76" transform="translate(254,140)"/>
<path d="M0 0 C5.94 0 11.88 0 18 0 C18.01458252 1.50828369 18.02916504 3.01656738 18.04418945 4.57055664 C18.1022909 10.18228511 18.1795239 15.79361731 18.26245117 21.4050293 C18.29564466 23.83074498 18.32369384 26.25653686 18.34643555 28.68237305 C18.38008331 32.17529684 18.43240631 35.66752585 18.48828125 39.16015625 C18.49467117 40.23959 18.5010611 41.31902374 18.50764465 42.4311676 C18.6224636 48.3509008 19.06607679 52.80167262 22 58 C24.92247573 59.46123786 27.55853839 59.2477615 30.8125 59.3125 C32.03582031 59.34988281 33.25914062 59.38726562 34.51953125 59.42578125 C38.58957269 58.92787495 40.16567704 57.90766958 43 55 C43.98964237 52.03107289 44.15273727 49.98850092 44.20532227 46.88598633 C44.22526749 45.84513382 44.24521271 44.80428131 44.26576233 43.73188782 C44.28247482 42.60993515 44.29918732 41.48798248 44.31640625 40.33203125 C44.33718735 39.18208176 44.35796844 38.03213226 44.37937927 36.84733582 C44.44483342 33.16911875 44.50374074 29.49082952 44.5625 25.8125 C44.60568913 23.32095604 44.64930355 20.82941941 44.69335938 18.33789062 C44.80051065 12.22533462 44.90178997 6.11270594 45 0 C50.94 0 56.88 0 63 0 C63 25.08 63 50.16 63 76 C57.39 76 51.78 76 46 76 C45.34 74.68 44.68 73.36 44 72 C43.2575 72.474375 42.515 72.94875 41.75 73.4375 C33.782621 77.96441989 21.36267517 77.35973043 12.703125 75.1640625 C6.91837796 72.55216156 3.48929698 68.82379712 1 63 C-0.03611994 59.66417095 -0.12097018 56.6140444 -0.11352539 53.12988281 C-0.11344986 51.94896057 -0.11337433 50.76803833 -0.11329651 49.55133057 C-0.10813522 48.28142273 -0.10297394 47.01151489 -0.09765625 45.703125 C-0.0962413 44.39921814 -0.09482635 43.09531128 -0.09336853 41.75189209 C-0.08955867 38.29296945 -0.07974151 34.83408909 -0.06866455 31.37518311 C-0.05841746 27.84257581 -0.05386385 24.30996164 -0.04882812 20.77734375 C-0.03811782 13.85154342 -0.02053346 6.9257781 0 0 Z " fill="#D82A61" transform="translate(399,140)"/>
<path d="M0 0 C2.84999535 3.87897229 3.34491063 6.53771077 3.1875 11.3125 C3.14689453 12.91544922 3.14689453 12.91544922 3.10546875 14.55078125 C3.07066406 15.35902344 3.03585937 16.16726562 3 17 C-10.60656169 18.07825583 -10.60656169 18.07825583 -13.96875 15.4765625 C-15.1875 13.5625 -15.1875 13.5625 -17 10 C-19.65224403 8.98247242 -22.17785237 8.86397599 -25 8.875 C-25.66 8.87242187 -26.32 8.86984375 -27 8.8671875 C-29.10126013 9.00672431 -30.97628927 9.43083136 -33 10 C-33.16301505 11.41279706 -33.2788797 12.83108128 -33.375 14.25 C-33.44460938 15.03890625 -33.51421875 15.8278125 -33.5859375 16.640625 C-33.17498794 19.24488992 -33.17498794 19.24488992 -30.625 21.11328125 C-25.51791369 24.1377493 -19.57699199 25.20159859 -13.875 26.62304688 C-5.6758583 28.79097555 1.11694944 31.77308518 6 39 C8.51346578 44.02693155 7.87924241 53.05644933 6.28125 58.40625 C3.19983421 64.07207904 -0.92334258 66.88621521 -6.9375 68.75 C-12.98630186 70.11004116 -18.95014197 70.35259376 -25.125 70.4375 C-26.04273193 70.45973633 -26.96046387 70.48197266 -27.90600586 70.50488281 C-35.89063659 70.47914669 -42.79379091 68.67184091 -49 63.5 C-53.65827644 57.67715445 -53.17455203 53.33118528 -53 46 C-47.39 46 -41.78 46 -36 46 C-34.68 48.64 -33.36 51.28 -32 54 C-26.06 54 -20.12 54 -14 54 C-14 51.03 -14 48.06 -14 45 C-18.36958745 42.63062309 -22.48831081 41.22972335 -27.3125 40.0625 C-37.70252701 37.40913289 -46.3854779 34.25193317 -52.9375 25.375 C-55.19425224 18.20649288 -55.01750349 11.33464467 -51.8125 4.5 C-49.04999193 -0.34214898 -46.32211937 -3.04086374 -41.125 -5.1875 C-27.94683434 -8.61382307 -10.94703474 -9.30497953 0 0 Z " fill="#FE7B0A" transform="translate(930,146)"/>
<path d="M0 0 C0.92296875 0.00064453 1.8459375 0.00128906 2.796875 0.00195312 C9.60953692 0.04703692 9.60953692 0.04703692 10.75 1.1875 C10.84909302 3.51910055 10.87970504 5.85379942 10.875 8.1875 C10.87886719 10.105625 10.87886719 10.105625 10.8828125 12.0625 C10.75 15.1875 10.75 15.1875 9.75 16.1875 C7.56360547 16.26008946 5.37499611 16.27123783 3.1875 16.25 C1.39119141 16.23646484 1.39119141 16.23646484 -0.44140625 16.22265625 C-1.36824219 16.21105469 -2.29507813 16.19945313 -3.25 16.1875 C-4.21070434 19.06961302 -4.35581883 20.88600044 -4.3125 23.875 C-4.291875 25.298125 -4.27125 26.72125 -4.25 28.1875 C1.03 28.5175 6.31 28.8475 11.75 29.1875 C11.84765625 40.02734375 11.84765625 40.02734375 11.75 43.1875 C9.32616482 45.61133518 3.15570963 44.72104865 -0.125 44.90625 C-3.1149801 44.83885448 -3.1149801 44.83885448 -4.25 46.1875 C-4.36806357 47.99203657 -4.41735438 49.80111538 -4.43945312 51.609375 C-4.45617065 52.76727539 -4.47288818 53.92517578 -4.4901123 55.11816406 C-4.50368774 56.37854492 -4.51726318 57.63892578 -4.53125 58.9375 C-4.5593704 60.89817461 -4.58749609 62.85884916 -4.61594391 64.81951904 C-4.66475068 68.27546038 -4.70717087 71.73148025 -4.75 75.1875 C-4.80105967 79.30766852 -4.85318505 83.42779912 -4.91296387 87.54785156 C-4.9498176 90.11745185 -4.98220954 92.68712044 -5.0098877 95.25683594 C-5.02660522 96.41473633 -5.04332275 97.57263672 -5.06054688 98.765625 C-5.07933899 100.30331543 -5.07933899 100.30331543 -5.09851074 101.87207031 C-5.25 104.1875 -5.25 104.1875 -6.25 105.1875 C-9.09335048 105.28736975 -11.90697163 105.32627881 -14.75 105.3125 C-15.54792969 105.31636719 -16.34585938 105.32023437 -17.16796875 105.32421875 C-23.12339233 105.31410767 -23.12339233 105.31410767 -24.25 104.1875 C-24.37337174 102.34718011 -24.42791308 100.50220589 -24.45532227 98.65795898 C-24.47526749 97.47681015 -24.49521271 96.29566132 -24.51576233 95.07872009 C-24.53247482 93.7933284 -24.54918732 92.50793671 -24.56640625 91.18359375 C-24.58718735 89.87544205 -24.60796844 88.56729034 -24.62937927 87.21949768 C-24.684663 83.73594553 -24.73404431 80.2523334 -24.78222656 76.76867676 C-24.83239574 73.2161727 -24.88810567 69.6637561 -24.94335938 66.11132812 C-25.05101791 59.13679454 -25.15244567 52.16218202 -25.25 45.1875 C-26.9 44.5275 -28.55 43.8675 -30.25 43.1875 C-30.25 38.8975 -30.25 34.6075 -30.25 30.1875 C-28.6 29.5275 -26.95 28.8675 -25.25 28.1875 C-25.22421875 27.2696875 -25.1984375 26.351875 -25.171875 25.40625 C-24.76828537 16.67403805 -24.23313317 10.06850155 -17.8125 3.8125 C-11.84147446 0.025996 -6.91240326 -0.09327817 0 0 Z " fill="#EB4E3D" transform="translate(552.25,110.8125)"/>
<path d="M0 0 C1.07507813 -0.00257813 2.15015625 -0.00515625 3.2578125 -0.0078125 C5.875 0.125 5.875 0.125 6.875 1.125 C6.94813567 3.65549402 6.96747527 6.15804837 6.9375 8.6875 C6.93298828 9.39841797 6.92847656 10.10933594 6.92382812 10.84179688 C6.91200864 12.60290013 6.89407263 14.36396036 6.875 16.125 C5.92238281 16.15078125 4.96976563 16.1765625 3.98828125 16.203125 C2.73402344 16.25984375 1.47976563 16.3165625 0.1875 16.375 C-1.05386719 16.42140625 -2.29523437 16.4678125 -3.57421875 16.515625 C-7.61037645 17.20829893 -9.31488792 18.18454877 -12.125 21.125 C-13.16217554 24.16699174 -13.26964971 27.04731755 -13.31445312 30.24487305 C-13.33117065 31.26240158 -13.34788818 32.27993011 -13.3651123 33.32829285 C-13.37868774 34.42007339 -13.39226318 35.51185394 -13.40625 36.63671875 C-13.42465942 37.76068558 -13.44306885 38.8846524 -13.46203613 40.04267883 C-13.54077381 44.85493402 -13.60868504 49.66732702 -13.67724609 54.47973633 C-13.72880846 57.99047116 -13.78610212 61.50107945 -13.84375 65.01171875 C-13.85732544 66.10957199 -13.87090088 67.20742523 -13.8848877 68.33854675 C-13.90160522 69.3466188 -13.91832275 70.35469086 -13.93554688 71.39331055 C-13.95433899 72.73089668 -13.95433899 72.73089668 -13.97351074 74.09550476 C-14.125 76.125 -14.125 76.125 -15.125 77.125 C-21.065 77.125 -27.005 77.125 -33.125 77.125 C-33.125 52.045 -33.125 26.965 -33.125 1.125 C-27.515 1.125 -21.905 1.125 -16.125 1.125 C-15.465 2.445 -14.805 3.765 -14.125 5.125 C-13.361875 4.485625 -12.59875 3.84625 -11.8125 3.1875 C-7.81280161 0.11796403 -4.91085518 -0.01183339 0 0 Z " fill="#ED553A" transform="translate(606.125,138.875)"/>
<path d="M0 0 C1.48831242 0.00667405 2.97660807 0.01863442 4.46484375 0.03515625 C5.22345703 0.03966797 5.98207031 0.04417969 6.76367188 0.04882812 C8.64326246 0.06064945 10.52281274 0.07858547 12.40234375 0.09765625 C13.06234375 1.74765625 13.72234375 3.39765625 14.40234375 5.09765625 C15.48515625 3.86015625 15.48515625 3.86015625 16.58984375 2.59765625 C21.32420571 -1.47183164 27.5435581 -0.29350896 33.40234375 0.09765625 C33.4291947 2.57689426 33.44910922 5.05584465 33.46484375 7.53515625 C33.47322266 8.24220703 33.48160156 8.94925781 33.49023438 9.67773438 C33.49887963 11.48459184 33.45454386 13.29153228 33.40234375 15.09765625 C31.72026823 16.77973177 29.45549148 16.26144216 27.15234375 16.34765625 C23.0128767 16.68096399 21.68282461 16.88449079 18.27734375 19.47265625 C15.70508262 23.07382183 15.27437226 25.70063455 15.21289062 30.01220703 C15.1961731 31.00979034 15.17945557 32.00737366 15.16223145 33.03518677 C15.14865601 34.11025482 15.13508057 35.18532288 15.12109375 36.29296875 C15.10268433 37.39615448 15.0842749 38.49934021 15.06530762 39.63595581 C14.98648917 44.36543933 14.91869893 49.09506598 14.85009766 53.82470703 C14.79852453 57.27253605 14.74122778 60.7202366 14.68359375 64.16796875 C14.67001831 65.24708527 14.65644287 66.32620178 14.64245605 67.4380188 C14.62573853 68.42929779 14.609021 69.42057678 14.59179688 70.44189453 C14.57300476 71.75735764 14.57300476 71.75735764 14.55383301 73.09939575 C14.40234375 75.09765625 14.40234375 75.09765625 13.40234375 76.09765625 C10.55899327 76.197526 7.74537212 76.23643506 4.90234375 76.22265625 C4.10441406 76.22652344 3.30648438 76.23039062 2.484375 76.234375 C-3.47104858 76.22426392 -3.47104858 76.22426392 -4.59765625 75.09765625 C-4.6973678 72.80254129 -4.72565491 70.50431076 -4.72705078 68.20703125 C-4.7288031 67.48672729 -4.73055542 66.76642334 -4.73236084 66.02429199 C-4.73677913 63.63205591 -4.73384146 61.23989315 -4.73046875 58.84765625 C-4.7311418 57.19238267 -4.73211183 55.53710918 -4.73336792 53.88183594 C-4.73484486 50.40819358 -4.73269046 46.93457688 -4.72802734 43.4609375 C-4.72233005 38.99833127 -4.72560908 34.53578517 -4.73159981 30.07318115 C-4.73520552 26.65380395 -4.73406679 23.2344411 -4.73147202 19.81506348 C-4.73080277 18.16914869 -4.73163107 16.52323262 -4.73395157 14.87731934 C-4.73647827 12.58093794 -4.73263728 10.28465526 -4.72705078 7.98828125 C-4.72625519 6.67891602 -4.72545959 5.36955078 -4.72463989 4.02050781 C-4.53824952 -0.26974077 -4.41826949 0.11993131 0 0 Z " fill="#DD3558" transform="translate(479.59765625,139.90234375)"/>
<path d="M0 0 C6.27 0 12.54 0 19 0 C19 25.08 19 50.16 19 76 C13.06 76 7.12 76 1 76 C-0.66165207 74.33834793 -0.11959725 72.3348397 -0.12442017 70.11598206 C-0.12082489 69.41827194 -0.11722961 68.72056183 -0.11352539 68.00170898 C-0.11367142 67.27004517 -0.11381744 66.53838135 -0.1139679 65.7845459 C-0.11326867 63.35503216 -0.10547585 60.92559417 -0.09765625 58.49609375 C-0.0957921 56.81600486 -0.09436819 55.13591543 -0.09336853 53.45582581 C-0.08954307 49.02526357 -0.07971256 44.5947339 -0.06866455 40.16418457 C-0.05845103 35.64657024 -0.05387104 31.12895066 -0.04882812 26.61132812 C-0.03809031 17.74086877 -0.02049329 8.87044219 0 0 Z " fill="#F0562B" transform="translate(622,140)"/>
<path d="M0 0 C3.36719871 3.15674879 4.84272791 6.55905796 5.38818359 11.12304688 C5.39156738 12.26837891 5.39495117 13.41371094 5.3984375 14.59375 C5.40423828 16.48673828 5.40423828 16.48673828 5.41015625 18.41796875 C5.39855469 19.72378906 5.38695312 21.02960938 5.375 22.375 C5.38660156 23.68082031 5.39820313 24.98664063 5.41015625 26.33203125 C5.40628906 27.59402344 5.40242188 28.85601562 5.3984375 30.15625 C5.39505371 31.30158203 5.39166992 32.44691406 5.38818359 33.62695312 C4.86995393 37.96313389 3.16790449 41.11942383 0.7734375 44.71875 C-2.14749593 46.62314713 -4.9450661 46.34804571 -8.375 46.375 C-9.68210937 46.4059375 -10.98921875 46.436875 -12.3359375 46.46875 C-16.84200157 45.73855625 -18.25349469 44.45471478 -21 40.875 C-22.86026377 35.59010944 -22.26319236 29.60971371 -22.29516602 24.08544922 C-22.3066931 22.69862674 -22.32715702 21.31184888 -22.35668945 19.92529297 C-22.39953194 17.91145681 -22.41295791 15.8970635 -22.42578125 13.8828125 C-22.44036377 12.68285645 -22.45494629 11.48290039 -22.4699707 10.24658203 C-21.90592453 6.20010013 -20.51380874 4.05421146 -18 0.875 C-13.01039946 -2.66567768 -5.49438026 -2.0603926 0 0 Z " fill="#FEFAFC" transform="translate(365,155.125)"/>
<path d="M0 0 C3.71747434 2.08178563 5.45566093 4.08959799 7 8 C7.3755199 12.27758895 7.32932449 16.55160219 7.31567383 20.84448242 C7.31251523 22.92745363 7.33598519 25.0090012 7.36132812 27.09179688 C7.36229492 29.07083008 7.36229492 29.07083008 7.36328125 31.08984375 C7.36626221 32.29503662 7.36924316 33.50022949 7.37231445 34.74194336 C6.96370115 38.31764472 6.1840294 40.16485504 4 43 C-0.75854774 45.65380547 -4.5764588 46.60261569 -10 46 C-13.70471763 44.31603744 -15.94448296 42.50090957 -18 39 C-18.3279007 36.36963021 -18.49148492 33.97957338 -18.50390625 31.34765625 C-18.51389145 30.61050888 -18.52387665 29.87336151 -18.53416443 29.11387634 C-18.54931969 27.55815223 -18.55639102 26.00233106 -18.5559082 24.4465332 C-18.56247168 22.07274086 -18.61696938 19.70313076 -18.67382812 17.33007812 C-18.68263108 15.81511841 -18.68858471 14.30013891 -18.69140625 12.78515625 C-18.7129628 12.0798024 -18.73451935 11.37444855 -18.75672913 10.64772034 C-18.71799947 7.847163 -18.5237566 5.64539699 -16.72434998 3.42808533 C-11.48977876 -1.13464327 -6.59521215 -1.00824421 0 0 Z " fill="#FEFDFC" transform="translate(840,155)"/>
<path d="M0 0 C3.11937969 1.37252707 4.4897715 1.979543 6 5 C6.58255362 10.16808281 6.77708313 14.5321763 4.3125 19.1875 C-0.82399983 21.99803764 -6.27909001 22.05942778 -12 21 C-14.8413553 18.68042948 -16.79168553 16.73823054 -17.23828125 13.01171875 C-17.3713075 8.84589668 -17.38831668 6.62130669 -15.125 3 C-10.73923563 -1.12777823 -5.75310151 -0.48150056 0 0 Z " fill="#FD7515" transform="translate(637,110)"/>
<path d="M0 0 C0.95519531 0.00644531 1.91039062 0.01289063 2.89453125 0.01953125 C5.1875 0.1875 5.1875 0.1875 6.1875 1.1875 C6.33943163 3.30869924 6.40933514 5.43605315 6.4375 7.5625 C6.46328125 8.72523437 6.4890625 9.88796875 6.515625 11.0859375 C6.1875 14.1875 6.1875 14.1875 5.05078125 15.9921875 C2.51639919 17.6180175 0.04159912 18.20052859 -2.875 18.9375 C-13.07153422 21.95785423 -19.56079208 26.5137478 -24.75390625 35.85546875 C-26.76611355 40.28826491 -26.98479419 44.28198977 -27.12890625 49.140625 C-27.14968735 49.80084656 -27.17046844 50.46106812 -27.19187927 51.14129639 C-27.25700147 53.23993015 -27.31608502 55.33868372 -27.375 57.4375 C-27.41822079 58.86459547 -27.4618362 60.29167905 -27.50585938 61.71875 C-27.61264411 65.20820722 -27.71401566 68.69779753 -27.8125 72.1875 C-30.71174366 73.63712183 -33.33550355 73.40876481 -36.5703125 73.50390625 C-37.56488968 73.5350779 -37.56488968 73.5350779 -38.57955933 73.56687927 C-40.69876694 73.63229231 -42.818099 73.69122105 -44.9375 73.75 C-46.37371081 73.79319309 -47.80990902 73.83680764 -49.24609375 73.88085938 C-52.76809594 73.98796499 -56.29023825 74.08925575 -59.8125 74.1875 C-56.6301038 72.32691485 -54.19806933 71.90876775 -50.53125 71.80859375 C-49.52449219 71.77443359 -48.51773438 71.74027344 -47.48046875 71.70507812 C-46.43503906 71.67865234 -45.38960937 71.65222656 -44.3125 71.625 C-42.2394718 71.56493075 -40.16654375 71.50127139 -38.09375 71.43359375 C-37.17658203 71.40966553 -36.25941406 71.3857373 -35.31445312 71.36108398 C-33.02028279 71.20191584 -31.01527352 70.82675518 -28.8125 70.1875 C-28.96847656 69.02734375 -29.12445313 67.8671875 -29.28515625 66.671875 C-31.10878885 52.41480101 -31.89768524 41.74797126 -23.8125 29.1875 C-23.1525 29.1875 -22.4925 29.1875 -21.8125 29.1875 C-21.8125 28.1975 -21.8125 27.2075 -21.8125 26.1875 C-21.1525 26.1875 -20.4925 26.1875 -19.8125 26.1875 C-19.8125 25.5275 -19.8125 24.8675 -19.8125 24.1875 C-18.8225 24.1875 -17.8325 24.1875 -16.8125 24.1875 C-16.3175 22.7025 -16.3175 22.7025 -15.8125 21.1875 C-14.1625 20.8575 -12.5125 20.5275 -10.8125 20.1875 C-10.8125 19.5275 -10.8125 18.8675 -10.8125 18.1875 C-9.0217015 17.68439942 -7.22983089 17.18511372 -5.4375 16.6875 C-4.43976563 16.4090625 -3.44203125 16.130625 -2.4140625 15.84375 C0.1875 15.1875 0.1875 15.1875 2.1875 15.1875 C2.1875 13.5375 2.1875 11.8875 2.1875 10.1875 C2.8475 9.8575 3.5075 9.5275 4.1875 9.1875 C4.5175 8.1975 4.8475 7.2075 5.1875 6.1875 C4.5275 6.1875 3.8675 6.1875 3.1875 6.1875 C3.1875 5.1975 3.1875 4.2075 3.1875 3.1875 C2.1975 3.5175 1.2075 3.8475 0.1875 4.1875 C0.1875 3.1975 0.1875 2.2075 0.1875 1.1875 C-1.64997503 1.8808868 -3.48733409 2.57458199 -5.32421875 3.26953125 C-7.06910431 3.91324884 -8.82265965 4.53371833 -10.58203125 5.13671875 C-22.64283904 9.31097918 -33.38615223 17.51923561 -39.3125 29.125 C-42.63113459 37.43982073 -45.09797881 46.25598515 -45.8125 55.1875 C-46.1425 55.1875 -46.4725 55.1875 -46.8125 55.1875 C-47.70753755 39.77296438 -43.37334536 28.41200185 -33.62890625 16.5234375 C-25.29816631 7.46769063 -12.62086533 -0.18991726 0 0 Z " fill="#FC6410" transform="translate(295.8125,25.8125)"/>
<path d="M0 0 C1.2890625 -0.00128906 2.578125 -0.00257813 3.90625 -0.00390625 C7.97675183 0.63764023 9.65188471 1.63467999 12.5 4.5625 C13.66461426 8.05634279 13.63568319 10.89905389 13.5 14.5625 C12.5 15.5625 12.5 15.5625 10.09155273 15.67602539 C9.04942627 15.67078857 8.0072998 15.66555176 6.93359375 15.66015625 C5.80888672 15.65693359 4.68417969 15.65371094 3.52539062 15.65039062 C2.34138672 15.64201172 1.15738281 15.63363281 -0.0625 15.625 C-1.25037109 15.62048828 -2.43824219 15.61597656 -3.66210938 15.61132812 C-6.60812226 15.59949675 -9.55403681 15.58301287 -12.5 15.5625 C-13.27127177 6.73572303 -13.27127177 6.73572303 -10.46875 2.47265625 C-6.73461503 0.0700352 -4.41826626 -0.07511053 0 0 Z " fill="#FEFCFA" transform="translate(684.5,154.4375)"/>
<path d="M0 0 C2.97922593 -0.02683987 5.95821295 -0.04676037 8.9375 -0.0625 C9.78763672 -0.07087891 10.63777344 -0.07925781 11.51367188 -0.08789062 C12.32255859 -0.09111328 13.13144531 -0.09433594 13.96484375 -0.09765625 C14.7137085 -0.10289307 15.46257324 -0.10812988 16.23413086 -0.11352539 C18 0 18 0 19 1 C19.09742068 2.33839473 19.12631559 3.68186825 19.12698364 5.02380371 C19.12980347 5.89039108 19.13262329 6.75697845 19.13552856 7.64982605 C19.13350433 8.6077858 19.1314801 9.56574554 19.12939453 10.55273438 C19.13114685 11.55589188 19.13289917 12.55904938 19.13470459 13.59260559 C19.13912516 16.92633772 19.13618439 20.26001729 19.1328125 23.59375 C19.13348548 25.89921072 19.13445545 28.20467136 19.13571167 30.51013184 C19.13718892 35.34904657 19.13503321 40.18794287 19.13037109 45.02685547 C19.1246738 51.24494645 19.12795266 57.46299428 19.13394356 63.68108368 C19.13754843 68.44383065 19.13641092 73.2065673 19.13381577 77.96931458 C19.13314629 80.26276149 19.13397562 82.55620932 19.13629532 84.84965515 C19.13882064 88.04888406 19.13498295 91.24804203 19.12939453 94.44726562 C19.13141876 95.40522537 19.13344299 96.36318512 19.13552856 97.35017395 C19.13129883 98.65005501 19.13129883 98.65005501 19.12698364 99.97619629 C19.12660662 100.7335331 19.12622959 101.4908699 19.12584114 102.27115631 C19 104 19 104 18 105 C15.13732433 105.07325168 12.299281 105.09238205 9.4375 105.0625 C8.63119141 105.05798828 7.82488281 105.05347656 6.99414062 105.04882812 C4.99606244 105.03700518 2.99802217 105.01906914 1 105 C0.505 102.525 0.505 102.525 0 100 C0.33 100.99 0.66 101.98 1 103 C5.95 103 10.9 103 16 103 C16.33 69.34 16.66 35.68 17 1 C11.39 1 5.78 1 0 1 C0 0.67 0 0.34 0 0 Z " fill="#FE6902" transform="translate(848,111)"/>
<path d="M0 0 C0.99 0.33 1.98 0.66 3 1 C2.56429687 1.4125 2.12859375 1.825 1.6796875 2.25 C-2.12827331 5.94256806 -5.48604633 9.71952559 -8.58203125 14.02734375 C-9.50648656 15.31343171 -10.46140822 16.57831489 -11.44921875 17.81640625 C-14.63047886 21.89097149 -15.43952401 24.76889078 -16 30 C-17.23444406 33.6210359 -18.87386488 36.81079732 -21 40 C-20.34 40 -19.68 40 -19 40 C-19.33 41.98 -19.66 43.96 -20 46 C-15.71 46 -11.42 46 -7 46 C-6.80664062 44.97519531 -6.61328125 43.95039063 -6.4140625 42.89453125 C-6.15130137 41.53380399 -5.88826602 40.17312967 -5.625 38.8125 C-5.49867187 38.13896484 -5.37234375 37.46542969 -5.2421875 36.77148438 C-4.50353223 32.9858761 -3.57376777 29.52387131 -2 26 C-1.34 26 -0.68 26 0 26 C0.433125 24.88625 0.433125 24.88625 0.875 23.75 C1.431875 22.38875 1.431875 22.38875 2 21 C2.268125 20.319375 2.53625 19.63875 2.8125 18.9375 C4.41379646 16.32485841 6.58816153 14.85526036 9 13 C9.33 12.34 9.66 11.68 10 11 C11.97888961 10.27306096 13.97954558 9.60183749 16 9 C15.319375 9.66 14.63875 10.32 13.9375 11 C12.95345289 11.99519779 11.97486987 12.99581073 11 14 C10.43410156 14.58136719 9.86820313 15.16273438 9.28515625 15.76171875 C0.5243517 25.21265233 -2.27643247 35.73633837 -5 48 C-7.81256281 48.02684312 -10.62487241 48.04676188 -13.4375 48.0625 C-14.23994141 48.07087891 -15.04238281 48.07925781 -15.86914062 48.08789062 C-17.91295221 48.0965143 -19.95683902 48.0522815 -22 48 C-23 47 -23 47 -23.375 43.375 C-23.12227855 25.74065884 -11.59446843 12.01379821 0 0 Z " fill="#600F89" transform="translate(110,232)"/>
<path d="M0 0 C5.61 0 11.22 0 17 0 C16.67 0.66 16.34 1.32 16 2 C11.05 1.67 6.1 1.34 1 1 C1 25.09 1 49.18 1 74 C6.94 73.505 6.94 73.505 13 73 C13.99 73.33 14.98 73.66 16 74 C16.00808685 73.40753479 16.01617371 72.81506958 16.02450562 72.20465088 C16.1105396 66.0401863 16.21004284 59.8760437 16.31738281 53.71191406 C16.35567417 51.4111878 16.39052674 49.11040165 16.421875 46.80957031 C16.4675217 43.50303738 16.52551747 40.19691688 16.5859375 36.890625 C16.59748871 35.86132874 16.60903992 34.83203247 16.62094116 33.77154541 C16.64081085 32.81085144 16.66068054 31.85015747 16.68115234 30.86035156 C16.69447601 30.01651917 16.70779968 29.17268677 16.7215271 28.30328369 C17.0223118 25.81545639 17.75378638 24.15684401 19 22 C19.02526648 29.52969652 19.04283141 37.0593822 19.05493164 44.58911133 C19.0599737 47.15291757 19.06680714 49.71672091 19.07543945 52.28051758 C19.08751064 55.95655021 19.09322942 59.63254498 19.09765625 63.30859375 C19.10281754 64.46274277 19.10797882 65.61689178 19.11329651 66.80601501 C19.11340981 68.3975515 19.11340981 68.3975515 19.11352539 70.02124023 C19.115746 70.96055893 19.11796661 71.89987762 19.12025452 72.86766052 C19 75 19 75 18 76 C12.06 76 6.12 76 0 76 C0 50.92 0 25.84 0 0 Z " fill="#E72F1F" transform="translate(573,140)"/>
<path d="M0 0 C1.54636538 0.14368882 3.09149711 0.31701831 4.625 0.5625 C4.09712891 1.25472656 4.09712891 1.25472656 3.55859375 1.9609375 C1.90048033 4.1515521 0.26179354 6.35591358 -1.375 8.5625 C-2.16970703 9.614375 -2.16970703 9.614375 -2.98046875 10.6875 C-8.92818052 18.82498689 -13.5933149 27.71095705 -18.375 36.5625 C-20.06519724 31.49190828 -17.46943009 26.86414471 -15.8125 21.9375 C-15.47669922 20.88175781 -15.14089844 19.82601562 -14.79492188 18.73828125 C-8.59347981 0.09931014 -8.59347981 0.09931014 0 0 Z " fill="#FCF5F9" transform="translate(166.375,115.4375)"/>
<path d="M0 0 C0.33 0 0.66 0 1 0 C1.02505615 1.0516333 1.0501123 2.1032666 1.07592773 3.18676758 C1.7034104 30.10639892 1.7034104 30.10639892 3 57 C7.95 57.33 12.9 57.66 18 58 C18 38.86 18 19.72 18 0 C18.33 0 18.66 0 19 0 C19.02312821 7.67536627 19.04091753 15.35072896 19.05181217 23.02612209 C19.05703995 26.58977422 19.06413569 30.15340257 19.07543945 33.71704102 C19.08834176 37.81006097 19.09322906 41.9030558 19.09765625 45.99609375 C19.10281754 47.28148544 19.10797882 48.56687714 19.11329651 49.89122009 C19.11340981 51.66294334 19.11340981 51.66294334 19.11352539 53.47045898 C19.115746 54.51636703 19.11796661 55.56227509 19.12025452 56.63987732 C19 59 19 59 18 60 C15.15664952 60.09986975 12.34302837 60.13877881 9.5 60.125 C8.70207031 60.12886719 7.90414062 60.13273437 7.08203125 60.13671875 C1.12660767 60.12660767 1.12660767 60.12660767 0 59 C-0.09381302 57.15881971 -0.11743954 55.31402359 -0.11352539 53.47045898 C-0.11344986 52.28931015 -0.11337433 51.10816132 -0.11329651 49.89122009 C-0.10813522 48.6058284 -0.10297394 47.32043671 -0.09765625 45.99609375 C-0.0962413 44.68794205 -0.09482635 43.37979034 -0.09336853 42.03199768 C-0.0895441 38.54837141 -0.07971446 35.06478661 -0.06866455 31.58117676 C-0.05844882 28.02873292 -0.05387056 24.47628241 -0.04882812 20.92382812 C-0.03809212 13.94920168 -0.0210166 6.97460283 0 0 Z " fill="#DE1B31" transform="translate(528,156)"/>
<path d="M0 0 C0.33 0 0.66 0 1 0 C1.02716089 3.02089478 1.04691657 6.04154129 1.0625 9.0625 C1.07087891 9.91005859 1.07925781 10.75761719 1.08789062 11.63085938 C1.10683006 16.5361722 0.83326345 21.16444755 0 26 C0.66 26.33 1.32 26.66 2 27 C3.03145371 28.30915279 4.03542166 29.64082143 5 31 C6.11375 30.649375 7.2275 30.29875 8.375 29.9375 C12 29 12 29 14 30 C14.40729228 32.32156597 14.74438677 34.6568787 15 37 C11.69021934 37.9929342 8.54267351 38.91741925 5.125 39.4375 C-0.43427401 40.43816932 -6.08136927 42.17554611 -11 45 C-11.33 45.66 -11.66 46.32 -12 47 C-14.06640625 47.8515625 -14.06640625 47.8515625 -16.5625 48.625 C-17.80193359 49.01558594 -17.80193359 49.01558594 -19.06640625 49.4140625 C-19.70449219 49.60742188 -20.34257813 49.80078125 -21 50 C-13.92748146 42.26151926 -2.55967396 36.44359155 8.03515625 35.89453125 C9.69039576 35.87807758 11.34611375 35.93108807 13 36 C12.34 34.68 11.68 33.36 11 32 C10.67 32.33 10.34 32.66 10 33 C2.66666667 33.47311828 2.66666667 33.47311828 0.0625 31.625 C-2.34728201 27.93945104 -1.95938418 25.5751627 -1.625 21.1875 C-1.57609619 20.52548584 -1.52719238 19.86347168 -1.47680664 19.18139648 C-1.32330002 17.12047797 -1.16198304 15.06026773 -1 13 C-0.90332031 11.71867188 -0.80664062 10.43734375 -0.70703125 9.1171875 C-0.47656357 6.07768626 -0.24084084 3.03869402 0 0 Z " fill="#A70B73" transform="translate(132,182)"/>
<path d="M0 0 C1.37091797 0.00773437 1.37091797 0.00773437 2.76953125 0.015625 C9.47027726 0.09527726 9.47027726 0.09527726 10.625 1.25 C10.72409302 3.58160055 10.75470504 5.91629942 10.75 8.25 C10.75386719 10.168125 10.75386719 10.168125 10.7578125 12.125 C10.625 15.25 10.625 15.25 9.625 16.25 C7.43860547 16.32258946 5.24999611 16.33373783 3.0625 16.3125 C1.26619141 16.29896484 1.26619141 16.29896484 -0.56640625 16.28515625 C-1.49324219 16.27355469 -2.42007813 16.26195313 -3.375 16.25 C-3.045 15.26 -2.715 14.27 -2.375 13.25 C1.255 13.25 4.885 13.25 8.625 13.25 C8.439375 12.156875 8.25375 11.06375 8.0625 9.9375 C7.625 6.25 7.625 6.25 8.625 3.25 C5.57586772 2.23888907 5.57586772 2.23888907 2.625 3.25 C1.06248905 3.26999557 -0.50082952 3.24250524 -2.0625 3.1875 C-7.97826801 3.12765842 -12.36127229 3.90751486 -17.375 7.25 C-17.045 8.57 -16.715 9.89 -16.375 11.25 C-16.973125 11.518125 -17.57125 11.78625 -18.1875 12.0625 C-20.34724808 13.23493467 -21.73290256 14.44369282 -23.375 16.25 C-23.01996506 10.33275106 -21.6689334 7.35724064 -17.375 3.25 C-11.51955245 0.05063175 -6.59166605 -0.15262903 0 0 Z " fill="#FA6619" transform="translate(552.375,110.75)"/>
<path d="M0 0 C0.66 0.66 1.32 1.32 2 2 C1.41992188 2.31710938 0.83984375 2.63421875 0.2421875 2.9609375 C-6.52470427 7.00320618 -11.10402678 12.07835334 -13.54858398 19.71337891 C-14.15822794 22.80149426 -14.22309125 25.8070763 -14.31640625 28.953125 C-14.33718735 29.61334656 -14.35796844 30.27356812 -14.37937927 30.95379639 C-14.44450147 33.05243015 -14.50358502 35.15118372 -14.5625 37.25 C-14.60572079 38.67709547 -14.6493362 40.10417905 -14.69335938 41.53125 C-14.80014411 45.02070722 -14.90151566 48.51029753 -15 52 C-17.89924366 53.44962183 -20.52300355 53.22126481 -23.7578125 53.31640625 C-24.75238968 53.3475779 -24.75238968 53.3475779 -25.76705933 53.37937927 C-27.88626694 53.44479231 -30.005599 53.50372105 -32.125 53.5625 C-33.56121081 53.60569309 -34.99740902 53.64930764 -36.43359375 53.69335938 C-39.95559594 53.80046499 -43.47773825 53.90175575 -47 54 C-43.8176038 52.13941485 -41.38556933 51.72126775 -37.71875 51.62109375 C-36.20861328 51.56985352 -36.20861328 51.56985352 -34.66796875 51.51757812 C-33.62253906 51.49115234 -32.57710937 51.46472656 -31.5 51.4375 C-29.4269718 51.37743075 -27.35404375 51.31377139 -25.28125 51.24609375 C-24.36408203 51.22216553 -23.44691406 51.1982373 -22.50195312 51.17358398 C-20.20778279 51.01441584 -18.20277352 50.63925518 -16 50 C-16.15597656 48.83984375 -16.31195313 47.6796875 -16.47265625 46.484375 C-18.29628885 32.22730101 -19.08518524 21.56047126 -11 9 C-10.34 9 -9.68 9 -9 9 C-9 8.01 -9 7.02 -9 6 C-8.34 6 -7.68 6 -7 6 C-7 5.34 -7 4.68 -7 4 C-6.01 4 -5.02 4 -4 4 C-3.67 3.01 -3.34 2.02 -3 1 C-2.01 0.67 -1.02 0.34 0 0 Z " fill="#EF472B" transform="translate(283,46)"/>
<path d="M0 0 C3.91015416 3.91015416 4.80087643 10.14151331 5.375 15.5 C5.189375 16.7375 5.189375 16.7375 5 18 C1.73401776 20.17732149 1.01878883 20.21534115 -2.71875 20.0546875 C-3.64631104 20.02745605 -4.57387207 20.00022461 -5.52954102 19.97216797 C-6.50979248 19.94010254 -7.49004395 19.90803711 -8.5 19.875 C-16.81263564 19.72558658 -23.46375886 20.19718218 -31 24 C-32.66211425 24.6779369 -34.32771845 25.34754569 -36 26 C-36.33 25.34 -36.66 24.68 -37 24 C-35.68 23.67 -34.36 23.34 -33 23 C-33 22.34 -33 21.68 -33 21 C-31.35 21 -29.7 21 -28 21 C-27.67 20.34 -27.34 19.68 -27 19 C-25.43632022 17.43632022 -23.72161607 17.616821 -21.5625 17.375 C-20.35787109 17.23191406 -20.35787109 17.23191406 -19.12890625 17.0859375 C-17 17 -17 17 -15 18 C-12.795636 18.22950319 -10.58607827 18.41075933 -8.375 18.5625 C-7.18648437 18.64628906 -5.99796875 18.73007813 -4.7734375 18.81640625 C-3.40058594 18.90728516 -3.40058594 18.90728516 -2 19 C-2 18.34 -2 17.68 -2 17 C-0.68 17 0.64 17 2 17 C1.85892253 15.54119891 1.71197585 14.08296449 1.5625 12.625 C1.48128906 11.81289062 1.40007812 11.00078125 1.31640625 10.1640625 C1.10909886 7.95727195 1.10909886 7.95727195 0 6 C-0.039992 4.00039988 -0.04346799 1.99952758 0 0 Z " fill="#9A0F7A" transform="translate(162,216)"/>
<path d="M0 0 C1.07507813 -0.00257813 2.15015625 -0.00515625 3.2578125 -0.0078125 C5.875 0.125 5.875 0.125 6.875 1.125 C6.94813567 3.65549402 6.96747527 6.15804837 6.9375 8.6875 C6.93298828 9.39841797 6.92847656 10.10933594 6.92382812 10.84179688 C6.91200864 12.60290013 6.89407263 14.36396036 6.875 16.125 C5.91078125 16.18558594 4.9465625 16.24617188 3.953125 16.30859375 C2.68984375 16.39238281 1.4265625 16.47617188 0.125 16.5625 C-1.12796875 16.64371094 -2.3809375 16.72492188 -3.671875 16.80859375 C-6.30817553 17.05015522 -8.60537294 17.36783934 -11.125 18.125 C-10.07421875 16.63671875 -10.07421875 16.63671875 -8.125 15.125 C-4.76953125 14.83203125 -4.76953125 14.83203125 -0.9375 14.9375 C0.97095703 14.97810547 0.97095703 14.97810547 2.91796875 15.01953125 C4.38169922 15.07173828 4.38169922 15.07173828 5.875 15.125 C5.875 10.835 5.875 6.545 5.875 2.125 C-2.54763934 2.40890919 -6.60297849 2.96173297 -13.125 8.125 C-15.25 7.9609375 -15.25 7.9609375 -17.125 7.125 C-17.455 6.135 -17.785 5.145 -18.125 4.125 C-21.095 3.63 -21.095 3.63 -24.125 3.125 C-24.125 2.795 -24.125 2.465 -24.125 2.125 C-21.155 2.125 -18.185 2.125 -15.125 2.125 C-14.795 3.115 -14.465 4.105 -14.125 5.125 C-13.361875 4.485625 -12.59875 3.84625 -11.8125 3.1875 C-7.81280161 0.11796403 -4.91085518 -0.01183339 0 0 Z " fill="#F5561A" transform="translate(606.125,138.875)"/>
<path d="M0 0 C5.51905809 2.75361999 8.85361032 6.85862699 10.83203125 12.60546875 C11.93262273 16.93817697 11.93262273 16.93817697 12.01171875 19.22265625 C11.35171875 19.88265625 10.69171875 20.54265625 10.01171875 21.22265625 C9.82996094 20.04896484 9.82996094 20.04896484 9.64453125 18.8515625 C9.39316406 17.33369141 9.39316406 17.33369141 9.13671875 15.78515625 C8.97429688 14.77582031 8.811875 13.76648438 8.64453125 12.7265625 C8.43570313 11.90027344 8.226875 11.07398438 8.01171875 10.22265625 C7.35171875 9.89265625 6.69171875 9.56265625 6.01171875 9.22265625 C4.51171875 7.22265625 4.51171875 7.22265625 3.01171875 5.22265625 C2.35171875 4.89265625 1.69171875 4.56265625 1.01171875 4.22265625 C1.01171875 3.56265625 1.01171875 2.90265625 1.01171875 2.22265625 C-9.64794808 0.87878148 -20.25879338 -0.18386407 -30.98828125 -0.77734375 C-23.06767488 -5.79240105 -8.34560943 -3.26282176 0 0 Z " fill="#FC6A16" transform="translate(703.98828125,141.77734375)"/>
<path d="M0 0 C-0.33 0.99 -0.66 1.98 -1 3 C-5.62 3 -10.24 3 -15 3 C-15 6.96 -15 10.92 -15 15 C-11.58306261 14.85912627 -8.1665383 14.71250529 -4.75 14.5625 C-3.78191406 14.52318359 -2.81382812 14.48386719 -1.81640625 14.44335938 C-0.88183594 14.40146484 0.05273438 14.35957031 1.015625 14.31640625 C1.87446289 14.27974854 2.73330078 14.24309082 3.61816406 14.20532227 C5.84960143 14.01296486 7.84982524 13.61153756 10 13 C7.53725492 15.69729223 5.69551616 16.89395521 1.93115234 17.12939453 C1.15723145 17.13052246 0.38331055 17.13165039 -0.4140625 17.1328125 C-1.67863281 17.13474609 -1.67863281 17.13474609 -2.96875 17.13671875 C-3.8453125 17.13285156 -4.721875 17.12898438 -5.625 17.125 C-6.50929688 17.12886719 -7.39359375 17.13273437 -8.3046875 17.13671875 C-9.14515625 17.13542969 -9.985625 17.13414062 -10.8515625 17.1328125 C-11.62322754 17.13168457 -12.39489258 17.13055664 -13.18994141 17.12939453 C-15 17 -15 17 -16 16 C-16.09909302 13.66839945 -16.12970504 11.33370058 -16.125 9 C-16.12757813 7.72125 -16.13015625 6.4425 -16.1328125 5.125 C-16 2 -16 2 -15 1 C-13.04693206 0.76388283 -11.08669993 0.58568597 -9.125 0.4375 C-7.52011719 0.31181641 -7.52011719 0.31181641 -5.8828125 0.18359375 C-3.9248868 0.05890201 -1.96189222 0 0 0 Z " fill="#AE0872" transform="translate(280,223)"/>
<path d="M0 0 C0.99 0.33 1.98 0.66 3 1 C2.52949219 1.49628906 2.05898438 1.99257813 1.57421875 2.50390625 C-2.28121729 6.71056214 -5.2734388 10.50460234 -7 16 C-7.33902344 17.07894531 -7.67804688 18.15789063 -8.02734375 19.26953125 C-9.89424315 25.50803137 -11.48026992 31.50337399 -12 38 C-12.33 38 -12.66 38 -13 38 C-13.82506541 23.7905401 -10.35745862 13.48635939 -2 2 C-1.34 1.34 -0.68 0.68 0 0 Z " fill="#F04826" transform="translate(262,43)"/>
<path d="M0 0 C0.99 0.33 1.98 0.66 3 1 C2.56429687 1.4125 2.12859375 1.825 1.6796875 2.25 C-2.73210712 6.52810387 -6.4278207 11.01075784 -10 16 C-10.47824219 16.62261719 -10.95648438 17.24523437 -11.44921875 17.88671875 C-13.95939418 21.20245192 -15.61926083 23.81186916 -16 28 C-16.33 28 -16.66 28 -17 28 C-17.70315562 24.04474963 -17.55520506 21.97123872 -15.53515625 18.4375 C-10.83211151 11.88117624 -5.51235062 5.88239268 0 0 Z M-18 28 C-17.34 28.66 -16.68 29.32 -16 30 C-16.99 30.99 -17.98 31.98 -19 33 C-18.67 31.35 -18.34 29.7 -18 28 Z " fill="#68138F" transform="translate(110,232)"/>
<path d="M0 0 C4.31013828 0.48303274 6.0235163 1.6017799 8.75 4.9375 C9.34296875 5.64777344 9.9359375 6.35804687 10.546875 7.08984375 C14.60841257 12.42880039 13.5784975 19.61109906 13 26 C11.34106652 31.15614459 9.54906934 34.96728711 5 38 C5.66 36.02 6.32 34.04 7 32 C7.66 32 8.32 32 9 32 C9.06058594 31.36191406 9.12117187 30.72382812 9.18359375 30.06640625 C9.26738281 29.24011719 9.35117188 28.41382812 9.4375 27.5625 C9.51871094 26.73878906 9.59992188 25.91507813 9.68359375 25.06640625 C10 23 10 23 11 22 C11.13818853 17.78524978 11.24752024 14.05444076 10 10 C10 9.34 10 8.68 10 8 C9.01 8 8.02 8 7 8 C5.9935725 6.33720673 4.99414593 4.67016516 4 3 C1.93299345 1.67206394 1.93299345 1.67206394 0 1 C0 0.67 0 0.34 0 0 Z " fill="#E22D40" transform="translate(209,41)"/>
<path d="M0 0 C-2.47772301 1.4866338 -4.2906119 2.03988791 -7.1875 2.4375 C-13.03632206 3.30044096 -18.84330383 5.04529173 -24 8 C-24.33 8.66 -24.66 9.32 -25 10 C-27.06640625 10.8515625 -27.06640625 10.8515625 -29.5625 11.625 C-30.38878906 11.88539063 -31.21507813 12.14578125 -32.06640625 12.4140625 C-32.70449219 12.60742188 -33.34257813 12.80078125 -34 13 C-25.74175977 3.96414769 -12.27059006 -2.55637293 0 0 Z " fill="#A3127F" transform="translate(145,219)"/>
<path d="M0 0 C1.485 0.99 1.485 0.99 3 2 C3.41650391 4.21142578 3.41650391 4.21142578 3.4765625 6.9453125 C3.5075 7.94046875 3.5384375 8.935625 3.5703125 9.9609375 C3.58835938 11.00507813 3.60640625 12.04921875 3.625 13.125 C3.67662501 15.16935046 3.73125778 17.21362744 3.7890625 19.2578125 C3.81387695 20.23911133 3.83869141 21.22041016 3.86425781 22.23144531 C3.98529334 24.70004752 4.26296511 27.05387679 4.6484375 29.4921875 C4.99196936 32.91987207 4.95542003 34.23940702 3 37 C2.86722656 36.11957031 2.73445312 35.23914063 2.59765625 34.33203125 C2.42105469 33.17058594 2.24445313 32.00914062 2.0625 30.8125 C1.88847656 29.66394531 1.71445313 28.51539063 1.53515625 27.33203125 C1.07003678 24.15488403 1.07003678 24.15488403 0.4375 21.6875 C-0.23933064 17.52982608 -0.10325427 13.39145932 -0.0625 9.1875 C-0.05798828 8.30384766 -0.05347656 7.42019531 -0.04882812 6.50976562 C-0.03709866 4.33981441 -0.01916495 2.16989828 0 0 Z " fill="#C22886" transform="translate(158,183)"/>
<path d="M0 0 C0.33 0 0.66 0 1 0 C1.79725902 7.36040917 2.12886183 14.59760355 2 22 C-0.89924366 23.44962183 -3.52300355 23.22126481 -6.7578125 23.31640625 C-7.42086395 23.33718735 -8.08391541 23.35796844 -8.76705933 23.37937927 C-10.88626694 23.44479231 -13.005599 23.50372105 -15.125 23.5625 C-16.56121081 23.60569309 -17.99740902 23.64930764 -19.43359375 23.69335938 C-22.95559594 23.80046499 -26.47773825 23.90175575 -30 24 C-26.8176038 22.13941485 -24.38556933 21.72126775 -20.71875 21.62109375 C-19.20861328 21.56985352 -19.20861328 21.56985352 -17.66796875 21.51757812 C-16.62253906 21.49115234 -15.57710937 21.46472656 -14.5 21.4375 C-12.4269718 21.37743075 -10.35404375 21.31377139 -8.28125 21.24609375 C-6.90549805 21.21020142 -6.90549805 21.21020142 -5.50195312 21.17358398 C-3.20778279 21.01441584 -1.20277352 20.63925518 1 20 C0.83628906 19.16210938 0.67257812 18.32421875 0.50390625 17.4609375 C-0.02987283 13.79482693 -0.09743025 10.32760615 -0.0625 6.625 C-0.05347656 5.37976563 -0.04445313 4.13453125 -0.03515625 2.8515625 C-0.02355469 1.91054687 -0.01195312 0.96953125 0 0 Z " fill="#DD0E2B" transform="translate(266,76)"/>
<path d="M0 0 C0.33 0 0.66 0 1 0 C0.54177532 3.46941546 0.10868317 6.67395049 -1 10 C-0.34 10.33 0.32 10.66 1 11 C-0.32 12.98 -1.64 14.96 -3 17 C-2.34 17 -1.68 17 -1 17 C-1.33 18.98 -1.66 20.96 -2 23 C-2.66 23 -3.32 23 -4 23 C-6.24715972 18.50568055 -4.45802312 12.48019666 -3.0390625 7.89453125 C-2.07138216 5.24198904 -1.06825846 2.61350675 0 0 Z " fill="#5B1C96" transform="translate(92,255)"/>
<path d="M0 0 C0.33 1.65 0.66 3.3 1 5 C0.34644531 4.51917969 -0.30710937 4.03835937 -0.98046875 3.54296875 C-4.8412652 1.57011675 -8.03939635 1.44615382 -12.3125 1.3125 C-13.05306641 1.27833984 -13.79363281 1.24417969 -14.55664062 1.20898438 C-16.37058164 1.12706446 -18.18526353 1.06184178 -20 1 C-14.87172049 -4.12827951 -6.15057317 -2.40022367 0 0 Z " fill="#FA650F" transform="translate(696,154)"/>
<path d="M0 0 C1 3 1 3 0.29296875 4.734375 C-0.07183594 5.39953125 -0.43664062 6.0646875 -0.8125 6.75 C-3.87947499 13.14925923 -4.30135318 20.02272453 -5 27 C-5.33 27 -5.66 27 -6 27 C-6.7920173 16.26376553 -5.84997276 9.34951004 0 0 Z " fill="#B61070" transform="translate(119,122)"/>
<path d="M0 0 C3.93239315 3.93239315 4.90780214 10.21750806 5.1875 15.625 C5.125625 16.40875 5.06375 17.1925 5 18 C2.50935112 18.68707555 0.62113708 19 -2 19 C-2 18.34 -2 17.68 -2 17 C-0.68 17 0.64 17 2 17 C1.85892253 15.54119891 1.71197585 14.08296449 1.5625 12.625 C1.44068359 11.40683594 1.44068359 11.40683594 1.31640625 10.1640625 C1.10909886 7.95727195 1.10909886 7.95727195 0 6 C-0.039992 4.00039988 -0.04346799 1.99952758 0 0 Z " fill="#B51982" transform="translate(162,216)"/>
<path d="M0 0 C-0.70125 0.4125 -1.4025 0.825 -2.125 1.25 C-7.44223103 4.48657541 -12.28207087 7.95606074 -17 12 C-17.66 11.67 -18.32 11.34 -19 11 C-7.03846154 -2.34615385 -7.03846154 -2.34615385 0 0 Z " fill="#F75418" transform="translate(282,31)"/>
<path d="M0 0 C2 3 2 3 2 5 C3.32 5.33 4.64 5.66 6 6 C5.67 7.32 5.34 8.64 5 10 C5.66 10 6.32 10 7 10 C9.6875 12.8125 9.6875 12.8125 12 16 C11.67 16.99 11.34 17.98 11 19 C9.5369343 17.25395451 8.0797192 15.50300547 6.625 13.75 C5.81289062 12.77546875 5.00078125 11.8009375 4.1640625 10.796875 C1.0768424 6.80689379 0 5.10273484 0 0 Z " fill="#AE1077" transform="translate(114,150)"/>
<path d="M0 0 C0.99 0.33 1.98 0.66 3 1 C2.34 3.31 1.68 5.62 1 8 C1.721875 7.67 2.44375 7.34 3.1875 7 C6.01697427 5.99396471 8.02895466 5.83022598 11 6 C9.28335317 8.07804617 8.14918841 8.95027053 5.5625 9.8125 C2.68335622 10.02316906 1.41021064 9.51754003 -1 8 C-0.67 5.36 -0.34 2.72 0 0 Z " fill="#DC284E" transform="translate(211,79)"/>
<path d="M0 0 C-0.93972656 0.59748047 -0.93972656 0.59748047 -1.8984375 1.20703125 C-2.71570313 1.73683594 -3.53296875 2.26664063 -4.375 2.8125 C-5.18710938 3.33457031 -5.99921875 3.85664062 -6.8359375 4.39453125 C-9.23350241 5.98437197 -9.23350241 5.98437197 -11 9 C-11.66 9 -12.32 9 -13 9 C-13.33 9.66 -13.66 10.32 -14 11 C-13.9158797 8.13990965 -13.43181261 6.45351173 -11.4453125 4.3671875 C-4.71424096 -1.41427229 -4.71424096 -1.41427229 0 0 Z " fill="#DB2448" transform="translate(197,42)"/>
<path d="M0 0 C4.90390192 1.15385928 6.98533846 4.03224568 9.7734375 7.95703125 C11.17098965 10.28480123 11.83028284 12.2845254 12 15 C11.01 15.495 11.01 15.495 10 16 C9.73445312 15.30132812 9.46890625 14.60265625 9.1953125 13.8828125 C8.84210937 12.97273437 8.48890625 12.06265625 8.125 11.125 C7.77695312 10.22007812 7.42890625 9.31515625 7.0703125 8.3828125 C6.11469105 5.87782993 6.11469105 5.87782993 4 4 C1.93125966 3.3574765 1.93125966 3.3574765 0 3 C0 2.01 0 1.02 0 0 Z " fill="#FC690E" transform="translate(780,142)"/>
<path d="M0 0 C-0.33 0.99 -0.66 1.98 -1 3 C-5.95 3 -10.9 3 -16 3 C-15.67 2.34 -15.34 1.68 -15 1 C-12.3828125 0.5859375 -12.3828125 0.5859375 -9.125 0.375 C-8.05507813 0.30023438 -6.98515625 0.22546875 -5.8828125 0.1484375 C-3.92384602 0.04756931 -1.96156164 0 0 0 Z " fill="#B80E75" transform="translate(280,223)"/>
<path d="M0 0 C0.33 0 0.66 0 1 0 C1.79725902 7.36040917 2.12886183 14.59760355 2 22 C1.01 22.33 0.02 22.66 -1 23 C-1.66 22.34 -2.32 21.68 -3 21 C-1.68 20.67 -0.36 20.34 1 20 C0.75443359 18.74316406 0.75443359 18.74316406 0.50390625 17.4609375 C-0.02987283 13.79482693 -0.09743025 10.32760615 -0.0625 6.625 C-0.05347656 5.37976563 -0.04445313 4.13453125 -0.03515625 2.8515625 C-0.01775391 1.44003906 -0.01775391 1.44003906 0 0 Z " fill="#E4262E" transform="translate(266,76)"/>
<path d="M0 0 C1.65 0.33 3.3 0.66 5 1 C3.61918777 5.1424367 1.40174442 6.32203099 -2 9 C-1.125 2.25 -1.125 2.25 0 0 Z " fill="#F55F20" transform="translate(531,118)"/>
<path d="M0 0 C0.33 0 0.66 0 1 0 C1 6.6 1 13.2 1 20 C0.67 20 0.34 20 0 20 C-0.06058594 19.39671875 -0.12117188 18.7934375 -0.18359375 18.171875 C-0.26738281 17.37265625 -0.35117187 16.5734375 -0.4375 15.75 C-0.51871094 14.96109375 -0.59992188 14.1721875 -0.68359375 13.359375 C-0.93778729 11.02672864 -0.93778729 11.02672864 -1.59375 8.9375 C-2.26413521 5.74027823 -0.99274145 3.0366209 0 0 Z " fill="#ED5B56" transform="translate(267,67)"/>
<path d="M0 0 C0.33 1.32 0.66 2.64 1 4 C1.66 4 2.32 4 3 4 C3.37125 4.9075 3.7425 5.815 4.125 6.75 C6.26026255 10.45112176 8.34208252 11.88653657 12 14 C11.01 14.495 11.01 14.495 10 15 C5.36934345 12.26370295 2.59004602 9.88124058 0 5 C-0.25 2.125 -0.25 2.125 0 0 Z " fill="#ED4320" transform="translate(654,198)"/>
<path d="M0 0 C0.99 0.66 1.98 1.32 3 2 C2.01 2.33 1.02 2.66 0 3 C-0.33 3.66 -0.66 4.32 -1 5 C-3.06640625 5.8515625 -3.06640625 5.8515625 -5.5625 6.625 C-6.38878906 6.88539063 -7.21507813 7.14578125 -8.06640625 7.4140625 C-8.70449219 7.60742188 -9.34257813 7.80078125 -10 8 C-6.88983545 4.71211176 -3.98381075 2.16264012 0 0 Z " fill="#951989" transform="translate(121,224)"/>
<path d="M0 0 C0.66 0.33 1.32 0.66 2 1 C-2.08806189 4.84616474 -5.40717158 7.63589551 -11 9 C-7.56638098 5.36440339 -4.2026393 2.63886654 0 0 Z " fill="#D72056" transform="translate(195,83)"/>
<path d="M0 0 C0.33 0 0.66 0 1 0 C0.42085333 6.01326751 -0.22337945 12.00892722 -1 18 C-1.33 18 -1.66 18 -2 18 C-2.054348 15.9377952 -2.09294961 13.87517184 -2.125 11.8125 C-2.14820313 10.66394531 -2.17140625 9.51539062 -2.1953125 8.33203125 C-2.00484152 5.08259628 -1.39360127 2.91339479 0 0 Z " fill="#E63234" transform="translate(251,63)"/>
<path d="M0 0 C0.99 0.33 1.98 0.66 3 1 C0 4 -3 7 -6 10 C-6.33 9.01 -6.66 8.02 -7 7 C-4.69 4.69 -2.38 2.38 0 0 Z " fill="#801288" transform="translate(110,232)"/>
<path d="M0 0 C0.99 0.33 1.98 0.66 3 1 C4.09658936 4.28976808 3.79953138 5.71303767 3 9 C-0.69418201 10.231394 -3.2056261 9.64432764 -7 9 C-7 8.67 -7 8.34 -7 8 C-4.69 8 -2.38 8 0 8 C0 5.36 0 2.72 0 0 Z " fill="#EC7179" transform="translate(248,73)"/>
<path d="M0 0 C-2.42130331 2.42130331 -3.80111377 2.52840504 -7.125 3.125 C-8.03507812 3.29257812 -8.94515625 3.46015625 -9.8828125 3.6328125 C-10.58148438 3.75398438 -11.28015625 3.87515625 -12 4 C-12.33 3.34 -12.66 2.68 -13 2 C-11.5882217 1.46605821 -10.17029756 0.94834896 -8.75 0.4375 C-7.96109375 0.14746094 -7.1721875 -0.14257812 -6.359375 -0.44140625 C-3.80896548 -1.04522837 -2.44677771 -0.8473932 0 0 Z " fill="#FC6B17" transform="translate(294,27)"/>
<path d="M0 0 C0.66 0.33 1.32 0.66 2 1 C2 3.64 2 6.28 2 9 C1.01 9 0.02 9 -1 9 C-1.09765625 2.84765625 -1.09765625 2.84765625 -1 1 C-0.67 0.67 -0.34 0.34 0 0 Z " fill="#DC3363" transform="translate(182,54)"/>
<path d="M0 0 C0.33 0.66 0.66 1.32 1 2 C0.07137808 4.03412421 -0.93753473 6.03247172 -2 8 C-2.391875 8.78375 -2.78375 9.5675 -3.1875 10.375 C-3.455625 10.91125 -3.72375 11.4475 -4 12 C-5.15171123 7.96901069 -5.00356005 5.70658609 -3 2 C-2.01 1.34 -1.02 0.68 0 0 Z " fill="#EA4B3E" transform="translate(256,54)"/>
<path d="M0 0 C2.73704754 2.73704754 3.16182449 5.26044774 4 9 C3.625 11.4375 3.625 11.4375 3 13 C0.78145293 8.37802694 -0.38281159 5.23175837 0 0 Z " fill="#B61175" transform="translate(162,216)"/>
<path d="M0 0 C0.28875 0.61875 0.5775 1.2375 0.875 1.875 C1.93720042 4.13325765 1.93720042 4.13325765 4 6 C5.02304948 7.65261839 6.02616054 9.31791365 7 11 C4.50638429 9.79618552 2.31856917 8.54571278 0 7 C-0.1875 3.375 -0.1875 3.375 0 0 Z " fill="#B01D86" transform="translate(130,203)"/>
<path d="M0 0 C1.25127906 3.54667178 0.72285053 5.72253438 -0.4375 9.25 C-0.72496094 10.14203125 -1.01242188 11.0340625 -1.30859375 11.953125 C-1.53675781 12.62859375 -1.76492187 13.3040625 -2 14 C-2.33 14 -2.66 14 -3 14 C-4.125 8.25 -4.125 8.25 -3 6 C-2.34 6 -1.68 6 -1 6 C-0.67 4.02 -0.34 2.04 0 0 Z " fill="#BF106D" transform="translate(149,138)"/>
<path d="M0 0 C1.04005702 3.38018531 1.08004482 6.4780279 1 10 C0.01 10.495 0.01 10.495 -1 11 C-2.23076923 4.6 -2.23076923 4.6 -1.0625 1.5625 C-0.711875 1.046875 -0.36125 0.53125 0 0 Z " fill="#F75F1D" transform="translate(655,154)"/>
<path d="M0 0 C2.64 0.33 5.28 0.66 8 1 C8 1.33 8 1.66 8 2 C5.36 2.33 2.72 2.66 0 3 C-0.33 4.32 -0.66 5.64 -1 7 C-2 4 -2 4 -1.0625 1.8125 C-0.5365625 0.9153125 -0.5365625 0.9153125 0 0 Z " fill="#D1276D" transform="translate(304,140)"/>
<path d="M0 0 C0.33 0.99 0.66 1.98 1 3 C-0.9375 5.6875 -0.9375 5.6875 -3 8 C-3.99 7.67 -4.98 7.34 -6 7 C-4.02 4.69 -2.04 2.38 0 0 Z " fill="#6D0B86" transform="translate(103,240)"/>
<path d="M0 0 C1.32 0 2.64 0 4 0 C4.12375 0.639375 4.2475 1.27875 4.375 1.9375 C4.684375 2.9584375 4.684375 2.9584375 5 4 C5.66 4.33 6.32 4.66 7 5 C5.68 5.33 4.36 5.66 3 6 C0 1.125 0 1.125 0 0 Z " fill="#FB6C0B" transform="translate(743,141)"/>
<path d="M0 0 C0.66 0.66 1.32 1.32 2 2 C-3.625 6 -3.625 6 -7 6 C-7 5.34 -7 4.68 -7 4 C-6.01 4 -5.02 4 -4 4 C-3.67 3.01 -3.34 2.02 -3 1 C-2.01 0.67 -1.02 0.34 0 0 Z " fill="#F45B2B" transform="translate(283,46)"/>
<path d="M0 0 C1.21236328 0.01353516 1.21236328 0.01353516 2.44921875 0.02734375 C3.37154297 0.04474609 3.37154297 0.04474609 4.3125 0.0625 C4.3125 0.3925 4.3125 0.7225 4.3125 1.0625 C2.69078761 1.45147161 1.06495075 1.82328298 -0.5625 2.1875 C-1.46742188 2.39632812 -2.37234375 2.60515625 -3.3046875 2.8203125 C-4.09101563 2.90023437 -4.87734375 2.98015625 -5.6875 3.0625 C-6.3475 2.4025 -7.0075 1.7425 -7.6875 1.0625 C-4.80538698 0.10179566 -2.98899956 -0.04331883 0 0 Z " fill="#DE2541" transform="translate(230.6875,82.9375)"/>
</svg>
